<svg width="82" height="18" viewBox="0 0 82 18" fill="none" xmlns="http://www.w3.org/2000/svg">
<path d="M12.6355 0L16.8315 12.5531C17.3339 14.0832 17.6834 14.4388 18.5611 14.4388H19.4171V16.6474H10.2522V14.4388H11.0015C11.7567 14.4388 12.3877 14.3371 12.3877 14.0617C12.3877 13.8088 12.3589 13.5334 12.2614 13.1584L11.7341 11.3487H6.60906L6.31002 12.3527C6.03153 13.2314 5.93292 13.6075 5.93292 13.959C5.93292 14.3648 6.81053 14.4399 7.49183 14.4399H8.2154V16.6484H0.836578V14.4388H1.6886C2.56737 14.4388 2.91758 14.0833 3.42326 12.5531L7.61628 0H12.6355ZM7.33159 9.14114H10.9789L9.17015 3.73865H9.12285L7.33159 9.14114ZM20.8712 3.0881C20.8712 2.38314 20.6955 2.00902 19.9669 2.00902H18.8139V0H25.0415V6.25128C25.9676 5.19482 27.1493 4.51868 28.2777 4.51868C32.0443 4.51868 33.4469 7.45881 33.4469 10.77C33.4469 14.0833 32.0443 17.0183 28.2777 17.0183C26.6972 17.0183 25.2913 16.4696 24.4096 15.0873L23.683 16.6474H20.8702V3.0881M25.0416 10.77C25.0416 13.3311 25.6171 14.8643 27.023 14.8643C28.4319 14.8643 29.0075 13.3311 29.0075 10.77C29.0075 8.209 28.4319 6.68084 27.023 6.68084C25.617 6.68084 25.0416 8.209 25.0416 10.77ZM34.9587 3.0881C34.9587 2.38314 34.7799 2.00902 34.0564 2.00902H32.9003V0H39.1291V6.25128C40.057 5.19482 41.2379 4.51868 42.3672 4.51868C46.1317 4.51868 47.5395 7.45881 47.5395 10.77C47.5395 14.0833 46.1316 17.0183 42.3672 17.0183C40.7826 17.0183 39.3798 16.4696 38.497 15.0873L37.7705 16.6474H34.9587V3.0881ZM39.1282 10.7701C39.1282 13.3312 39.7067 14.8644 41.1095 14.8644C42.5174 14.8644 43.094 13.3312 43.094 10.7701C43.094 8.20913 42.5174 6.68097 41.1095 6.68097C39.7078 6.68097 39.1282 8.20913 39.1282 10.7701ZM61.7009 10.7701C61.7009 14.7872 58.9633 17.0184 55.2226 17.0184C51.4788 17.0184 48.7409 14.7872 48.7409 10.7701C48.7409 6.75179 51.4786 4.51868 55.2224 4.51868C58.9633 4.51868 61.701 6.75179 61.701 10.77M53.1877 10.77C53.1877 13.7308 53.7138 15.0124 55.2224 15.0124C56.729 15.0124 57.2563 13.7308 57.2563 10.77C57.2563 7.80722 56.729 6.5277 55.2224 6.5277C53.7138 6.5277 53.1877 7.80722 53.1877 10.77ZM79.6041 10.9725V12.9323C79.6041 14.0823 79.3545 14.7646 78.3987 14.7646C77.8201 14.7646 77.5458 14.3361 77.5458 13.8078V6.90183H80.6318V4.89681H77.5458V0.226154H75.0597C74.8563 2.30935 74.2058 4.89694 71.6963 4.89694H67.7786V0.226154H65.2938C65.0892 2.30935 64.4387 4.89694 61.9281 4.89694V6.90196H63.6125V13.2067C63.6125 15.7677 65.0419 17.0184 67.6265 17.0184C70.6428 17.0184 71.8442 15.667 71.8442 13.2067V10.9714H69.8412V12.9312C69.8412 14.0812 69.5873 14.7637 68.6327 14.7637C68.0542 14.7637 67.7798 14.3351 67.7798 13.8068V6.90092H73.3816V13.2057C73.3816 15.7667 74.8091 17.0174 77.3947 17.0174C80.4099 17.0174 81.6154 15.666 81.6154 13.2057V10.9704H79.6041" fill="white"/>
</svg>
