<svg width="40" height="36" viewBox="0 0 40 36" fill="none" xmlns="http://www.w3.org/2000/svg">
<path d="M20 33.8333C22.7083 33.8333 25.0108 32.8858 26.9073 30.9906C28.8039 29.0955 29.7514 26.7931 29.75 24.0833C29.7486 21.3735 28.801 19.0718 26.9073 17.1781C25.0137 15.2845 22.7112 14.3362 20 14.3333C17.2888 14.3304 14.9871 15.2787 13.0948 17.1781C11.2026 19.0776 10.2543 21.3793 10.25 24.0833C10.2457 26.7873 11.1939 29.0898 13.0948 30.9906C14.9957 32.8915 17.2974 33.8391 20 33.8333ZM13.747 13.9758C14.4403 13.5223 15.1792 13.1575 15.9635 12.8816C16.7493 12.6058 17.5574 12.4035 18.388 12.275L13.4567 2.49897H8.04L13.747 13.9758ZM9.6585 31.5258C9.68306 31.2831 9.73939 31.0159 9.8275 30.7241C9.91417 30.4295 10.0413 30.1189 10.2088 29.7925C9.5415 28.7135 9.0605 27.5485 8.76583 26.2976C8.47117 25.0468 8.39389 23.759 8.534 22.4345C8.534 21.3511 8.72178 20.3227 9.09733 19.3491C9.47145 18.377 9.99145 17.5024 10.6573 16.7253C10.1417 16.8134 9.68811 16.9983 9.29667 17.28C8.90522 17.5631 8.62572 17.9004 8.45817 18.2918C6.84761 18.6833 5.59239 19.5896 4.6925 21.011C3.79261 22.4323 3.51744 24.0068 3.867 25.7343C3.867 27.3449 4.42961 28.7128 5.55483 29.838C6.68006 30.9632 8.04795 31.5273 9.6585 31.5258ZM30.3415 31.5236C32.3031 31.4081 33.9591 30.6396 35.3097 29.2183C36.6588 27.7984 37.3333 26.0868 37.3333 24.0833C37.3333 22.0799 36.6581 20.3682 35.3075 18.9483C33.9569 17.5284 32.3016 16.7593 30.3415 16.6408C30.1754 16.6408 30.0093 16.648 29.8432 16.6625C29.6756 16.6769 29.5081 16.6979 29.3405 16.7253C30.1494 17.7451 30.7806 18.8804 31.2342 20.1313C31.6892 21.3822 31.9167 22.6995 31.9167 24.0833C31.9167 25.4671 31.6899 26.7844 31.2363 28.0353C30.7813 29.2862 30.1501 30.4215 29.3427 31.4413C29.5088 31.4702 29.6749 31.4911 29.841 31.5041C30.0086 31.5186 30.1754 31.5236 30.3415 31.5236ZM20 36C18.6119 36 17.3003 35.7855 16.0653 35.3565C14.8303 34.9275 13.7087 34.31 12.7005 33.504C12.3192 33.6325 11.9176 33.7192 11.4958 33.764C11.0741 33.8088 10.6407 33.8319 10.1958 33.8333C7.52072 33.8333 5.23633 32.8865 3.34267 30.9928C1.449 29.0991 0.501444 26.814 0.5 24.1375C0.5 21.4956 1.42228 19.2358 3.26683 17.358C5.11139 15.4802 7.34594 14.5124 9.9705 14.4546C10.2767 14.4546 10.5685 14.4756 10.8458 14.5175C11.1232 14.5579 11.4005 14.6063 11.6778 14.6626L5.78233 2.84997C5.47611 2.26642 5.49633 1.70092 5.843 1.15347C6.18822 0.607472 6.69306 0.334473 7.3575 0.334473H12.6767C13.3411 0.334473 13.9449 0.509251 14.488 0.858806C15.0311 1.20836 15.4594 1.67492 15.7728 2.25847L20 10.6651L24.225 2.25847C24.5384 1.67492 24.9667 1.20836 25.5098 0.858806C26.0529 0.509251 26.6567 0.334473 27.3212 0.334473H32.6447C33.3091 0.334473 33.8147 0.607472 34.1613 1.15347C34.5066 1.70236 34.5261 2.26786 34.2198 2.84997L28.4175 14.5131C28.6674 14.4568 28.9245 14.4149 29.1888 14.3875C29.4517 14.3586 29.7226 14.3441 30.0013 14.3441C32.6533 14.412 34.8994 15.3849 36.7397 17.2626C38.5799 19.1404 39.5 21.414 39.5 24.0833C39.5 26.7945 38.5532 29.0977 36.6595 30.9928C34.7658 32.8879 32.4627 33.8348 29.75 33.8333C29.3138 33.8333 28.8898 33.8102 28.4782 33.764C28.0665 33.7178 27.6693 33.6311 27.2865 33.504C26.2797 34.2825 25.1603 34.8928 23.9282 35.3348C22.6961 35.7768 21.3867 35.9985 20 36ZM20 26.4666L17.6795 28.2216C17.4903 28.3459 17.3155 28.348 17.1552 28.2281C16.9948 28.1083 16.9501 27.9494 17.0208 27.7515L17.8832 24.8611L15.6038 23.2166C15.4161 23.0924 15.3583 22.9335 15.4305 22.74C15.5027 22.5464 15.6414 22.4496 15.8465 22.4496H18.6805L19.584 19.4293C19.6562 19.2329 19.7949 19.1346 20 19.1346C20.2051 19.1346 20.3438 19.2329 20.416 19.4293L21.3195 22.4496H24.1535C24.3586 22.4496 24.4973 22.5464 24.5695 22.74C24.6417 22.9335 24.5839 23.0924 24.3962 23.2166L22.1168 24.8633L22.9792 27.7493C23.0514 27.9472 23.0073 28.1061 22.847 28.226C22.6867 28.3459 22.5112 28.3444 22.3205 28.2216L20 26.4666ZM26.2552 13.9758L32.012 2.50114H26.5433L21.8135 11.8741L22.0518 12.3508C22.8073 12.4953 23.5382 12.6975 24.2445 12.9575C24.9494 13.2175 25.6196 13.5569 26.2552 13.9758Z" fill="white"/>
</svg>
