<svg width="31" height="30" viewBox="0 0 31 30" fill="none" xmlns="http://www.w3.org/2000/svg">
<path fill-rule="evenodd" clip-rule="evenodd" d="M6.0814 11.2367V9.4186C6.0814 6.92064 7.07371 4.52498 8.84004 2.75865C10.6064 0.992315 13.002 0 15.5 0C17.998 0 20.3936 0.992315 22.16 2.75865C23.9263 4.52498 24.9186 6.92064 24.9186 9.4186V11.2367C25.2349 11.2581 25.5335 11.2879 25.8144 11.326C27.0702 11.4935 28.1279 11.8563 28.9679 12.6949C29.8079 13.5349 30.1679 14.5926 30.3381 15.8484C30.5 17.0581 30.5 18.5972 30.5 20.5047V20.6581C30.5 22.5656 30.5 24.1047 30.3381 25.3144C30.1679 26.5702 29.8079 27.6279 28.9679 28.4679C28.1279 29.3079 27.0702 29.6679 25.8144 29.8381C24.6047 30 23.0656 30 21.1581 30H9.84186C7.93442 30 6.39535 30 5.18558 29.8381C3.92977 29.6679 2.87209 29.3079 2.03209 28.4679C1.19209 27.6279 0.832093 26.5702 0.663256 25.3144C0.5 24.1047 0.5 22.5656 0.5 20.6581V20.5047C0.5 18.5972 0.5 17.0581 0.663256 15.8484C0.830698 14.5926 1.19349 13.5349 2.03209 12.6949C2.87209 11.8549 3.92977 11.4949 5.18558 11.326C5.46558 11.2879 5.76419 11.2581 6.0814 11.2367ZM8.17442 9.4186C8.17442 7.47574 8.94622 5.61245 10.32 4.23864C11.6938 2.86482 13.5571 2.09302 15.5 2.09302C17.4429 2.09302 19.3062 2.86482 20.68 4.23864C22.0538 5.61245 22.8256 7.47574 22.8256 9.4186V11.167C22.3047 11.1633 21.7488 11.1619 21.1581 11.1628H9.84186C9.25209 11.1628 8.69628 11.1642 8.17442 11.167V9.4186ZM3.51256 14.1753C3.89907 13.7888 4.44046 13.5377 5.46605 13.3995C6.51814 13.2586 7.91628 13.2558 9.9186 13.2558H21.0814C23.0837 13.2558 24.4805 13.2586 25.5353 13.3995C26.5595 13.5377 27.1009 13.7902 27.4874 14.1753C27.874 14.5619 28.1251 15.1033 28.2633 16.1288C28.4042 17.1823 28.407 18.5791 28.407 20.5814C28.407 22.5837 28.4042 23.9805 28.2633 25.0353C28.1251 26.0595 27.8726 26.6009 27.4874 26.9874C27.1009 27.374 26.5595 27.6251 25.534 27.7633C24.4805 27.9042 23.0837 27.907 21.0814 27.907H9.9186C7.91628 27.907 6.51814 27.9042 5.46465 27.7633C4.44046 27.6251 3.89907 27.3726 3.51256 26.9874C3.12605 26.6009 2.87488 26.0595 2.73674 25.034C2.59581 23.9805 2.59302 22.5837 2.59302 20.5814C2.59302 18.5791 2.59581 17.1809 2.73674 16.1274C2.87488 15.1033 3.12744 14.5619 3.51256 14.1753Z" fill="#D70000"/>
</svg>
