<svg width="41" height="34" viewBox="0 0 41 34" fill="none" xmlns="http://www.w3.org/2000/svg">
<path d="M35.3206 0.884399H0.384644V6.25097H33.5767V6.2551C34.5365 6.2551 35.3084 7.031 35.3084 7.98563V26.0163L35.3011 26.0287C35.2928 26.9833 34.518 27.7501 33.5663 27.7501H7.48381C6.52814 27.7501 5.74914 26.9773 5.74914 26.0163V18.729C5.74914 17.7723 6.52814 16.9984 7.48381 16.9984H29.9273V11.6338H5.73583C2.77903 11.6338 0.384644 14.0254 0.384644 16.981V27.7634C0.384644 30.718 2.77916 33.1156 5.73583 33.1156H35.3206C38.2794 33.1156 40.6718 30.718 40.6718 27.7634V6.23559C40.6718 3.27995 38.2794 0.884399 35.3206 0.884399Z" fill="#0096D7"/>
</svg>
