<svg width="31" height="32" viewBox="0 0 31 32" fill="none" xmlns="http://www.w3.org/2000/svg">
<path d="M7.70841 19.3915L12.1084 23.7915M7.70841 19.3915C7.70841 19.3915 10.3062 12.8978 14.0041 8.3915M7.70841 19.3915C-1.85975 16.999 6.73675 8.3915 14.0041 8.3915M12.1084 23.7915C12.1084 23.7915 18.6021 21.1937 23.1084 17.4958M12.1084 23.7915C14.5009 33.3578 23.1084 24.7632 23.1084 17.4958M14.0041 8.3915C17.7441 3.83384 23.9096 1.7915 29.7084 1.7915C29.7084 7.59034 27.6661 13.754 23.1084 17.4958M19.9917 11.3377L21.2879 10.0415M3.61825 24.3892C1.87291 25.8577 1.29175 30.2173 1.29175 30.2173C1.29175 30.2173 5.64041 29.6343 7.10525 27.8853C7.93025 26.9063 7.91925 25.403 7.00075 24.4937C6.54664 24.0668 5.95221 23.8206 5.32927 23.8014C4.70634 23.7821 4.09784 23.9912 3.61825 24.3892Z" stroke="white" stroke-width="2" stroke-linecap="round" stroke-linejoin="round"/>
</svg>
