<svg width="41" height="40" viewBox="0 0 41 40" fill="none" xmlns="http://www.w3.org/2000/svg">
<path d="M13.4167 23.0833L17.4167 27.0833M13.4167 23.0833C13.4167 23.0833 15.7783 17.1799 19.14 13.0833M13.4167 23.0833C4.71833 20.9083 12.5333 13.0833 19.14 13.0833M17.4167 27.0833C17.4167 27.0833 23.32 24.7216 27.4167 21.3599M17.4167 27.0833C19.5917 35.7799 27.4167 27.9666 27.4167 21.3599M19.14 13.0833C22.54 8.93992 28.145 7.08325 33.4167 7.08325C33.4167 12.3549 31.56 17.9583 27.4167 21.3599M24.5833 15.7616L25.7617 14.5833M9.69833 27.6266C8.11166 28.9616 7.58333 32.9249 7.58333 32.9249C7.58333 32.9249 11.5367 32.3949 12.8683 30.8049C13.6183 29.9149 13.6083 28.5483 12.7733 27.7216C12.3605 27.3335 11.8201 27.1097 11.2538 27.0922C10.6875 27.0747 10.1343 27.2648 9.69833 27.6266Z" stroke="#0096D7" stroke-width="2" stroke-linecap="round" stroke-linejoin="round"/>
</svg>
